<svg width="16" height="18" viewBox="0 0 46 50" fill="none" xmlns="http://www.w3.org/2000/svg">
<path d="M44.1942 19.49C42.5496 16.1543 40.4562 13.1651 37.9972 10.641L43.354 4.45426C44.0885 3.57608 44.0898 2.15859 43.3568 1.28813C42.6419 0.438935 41.4877 0.421064 40.7468 1.24771L34.921 7.98476C31.414 5.41998 27.3805 4.04896 23.2559 4.01994C11.626 3.83986 4.85175 13.2247 1.84878 18.8344C-0.0430515 22.3468 -0.112328 26.8209 1.66985 30.3903C3.31446 33.726 5.4078 36.7152 7.86682 39.2393L2.50998 45.426C1.75041 46.2734 1.70777 47.6903 2.41473 48.5907C3.12169 49.4912 4.31058 49.5343 5.07006 48.687C5.08601 48.6691 5.10171 48.651 5.11714 48.6326L10.9561 41.889C14.4587 44.4534 18.4874 45.8265 22.608 45.8604C34.2379 46.0404 41.0122 36.6556 44.0152 31.0459C45.9071 27.5335 45.9763 23.0594 44.1942 19.49ZM11.661 24.7656C11.765 17.3595 16.8872 11.4235 23.1019 11.507C25.4533 11.5386 27.7334 12.4473 29.6217 14.1053L26.8438 17.3136C25.7114 16.473 24.4077 16.014 23.0707 15.9856C18.9208 15.9213 15.4946 19.8783 15.4181 24.8238C15.3999 26.4174 15.7438 27.9848 16.4132 29.3601L13.6353 32.5684C12.3083 30.2814 11.6179 27.5529 11.661 24.7656ZM22.7241 38.3721C20.3852 38.3357 18.1187 37.4276 16.2424 35.775L19.0203 32.5667C20.1527 33.4073 21.4564 33.8663 22.7934 33.8947C26.9433 33.959 30.3695 30.002 30.4461 25.0565C30.4642 23.4629 30.1203 21.8955 29.4509 20.5202L32.2288 17.3119C35.7469 23.3947 34.4451 31.7514 29.3212 35.9769C27.3824 37.5756 25.0753 38.4133 22.7241 38.3721Z" fill="#898989"/>
</svg>
