<svg width="191" height="37" viewBox="0 0 191 37" fill="none" xmlns="http://www.w3.org/2000/svg">
<path d="M0.0878128 31V3.08H19.0878V8.48H6.16781V14.2H17.2478V19.56H6.16781V25.6H19.0878V31H0.0878128ZM36.5541 27.48H36.3541C36.1941 28.04 35.9407 28.5733 35.5941 29.08C35.2474 29.56 34.8207 29.9867 34.3141 30.36C33.8341 30.7067 33.2741 30.9733 32.6341 31.16C32.0207 31.3733 31.3807 31.48 30.7141 31.48C28.0474 31.48 26.0341 30.5467 24.6741 28.68C23.3141 26.7867 22.6341 24.0533 22.6341 20.48C22.6341 16.9067 23.3141 14.1867 24.6741 12.32C26.0341 10.4533 28.0474 9.52 30.7141 9.52C32.0741 9.52 33.2741 9.89333 34.3141 10.64C35.3807 11.3867 36.0607 12.3467 36.3541 13.52H36.5541V1.4H42.4741V31H36.5541V27.48ZM32.6741 26.68C33.7941 26.68 34.7141 26.4133 35.4341 25.88C36.1807 25.32 36.5541 24.56 36.5541 23.6V17.4C36.5541 16.44 36.1807 15.6933 35.4341 15.16C34.7141 14.6 33.7941 14.32 32.6741 14.32C31.5541 14.32 30.6207 14.72 29.8741 15.52C29.1541 16.2933 28.7941 17.3467 28.7941 18.68V22.32C28.7941 23.6533 29.1541 24.72 29.8741 25.52C30.6207 26.2933 31.5541 26.68 32.6741 26.68ZM60.41 27.48H60.21C60.0233 28.0133 59.77 28.52 59.45 29C59.1567 29.48 58.77 29.9067 58.29 30.28C57.81 30.6533 57.2367 30.9467 56.57 31.16C55.93 31.3733 55.1833 31.48 54.33 31.48C52.17 31.48 50.53 30.7733 49.41 29.36C48.3167 27.92 47.77 25.8667 47.77 23.2V10H53.69V22.68C53.69 23.96 53.9167 24.9467 54.37 25.64C54.8233 26.3333 55.5967 26.68 56.69 26.68C57.1433 26.68 57.5967 26.6133 58.05 26.48C58.5033 26.3467 58.9033 26.16 59.25 25.92C59.5967 25.6533 59.8767 25.3333 60.09 24.96C60.3033 24.5867 60.41 24.1467 60.41 23.64V10H66.33V31H60.41V27.48ZM80.3181 31.48C78.7448 31.48 77.3448 31.2267 76.1181 30.72C74.8915 30.1867 73.8648 29.4533 73.0381 28.52C72.2115 27.56 71.5848 26.4 71.1581 25.04C70.7315 23.68 70.5181 22.16 70.5181 20.48C70.5181 18.8 70.7315 17.2933 71.1581 15.96C71.5848 14.6 72.2115 13.44 73.0381 12.48C73.8648 11.52 74.8915 10.7867 76.1181 10.28C77.3448 9.77333 78.7448 9.52 80.3181 9.52C82.4515 9.52 84.2248 10 85.6381 10.96C87.0781 11.92 88.1048 13.2667 88.7181 15L83.9181 17.08C83.7315 16.28 83.3448 15.6 82.7581 15.04C82.1715 14.48 81.3581 14.2 80.3181 14.2C79.1181 14.2 78.2115 14.6 77.5981 15.4C76.9848 16.1733 76.6781 17.2267 76.6781 18.56V22.48C76.6781 23.8133 76.9848 24.8667 77.5981 25.64C78.2115 26.4133 79.1181 26.8 80.3181 26.8C81.3848 26.8 82.2248 26.52 82.8381 25.96C83.4781 25.3733 83.9448 24.6133 84.2381 23.68L88.8381 25.68C88.1448 27.68 87.0648 29.1467 85.5981 30.08C84.1581 31.0133 82.3981 31.48 80.3181 31.48ZM98.2622 36.52C97.1689 36.52 96.2489 36.1733 95.5022 35.48C94.7555 34.7867 94.3822 33.7867 94.3822 32.48V24.36C94.3822 23.1867 94.0089 22.3067 93.2622 21.72C92.5422 21.1067 91.6222 20.8 90.5022 20.8V16.28C91.6222 16.28 92.5422 15.9867 93.2622 15.4C94.0089 14.7867 94.3822 13.8933 94.3822 12.72V4.64C94.3822 3.33333 94.7555 2.33333 95.5022 1.64C96.2489 0.946665 97.1689 0.599998 98.2622 0.599998H102.622V4.76H99.8622V13.36C99.8622 14 99.7422 14.6133 99.5022 15.2C99.2889 15.76 98.9955 16.2667 98.6222 16.72C98.2489 17.1733 97.8089 17.56 97.3022 17.88C96.7955 18.1733 96.2622 18.3733 95.7022 18.48V18.64C96.2622 18.7467 96.7955 18.96 97.3022 19.28C97.8089 19.5733 98.2489 19.9467 98.6222 20.4C98.9955 20.8533 99.2889 21.3733 99.5022 21.96C99.7422 22.52 99.8622 23.12 99.8622 23.76V32.36H102.622V36.52H98.2622ZM182.469 0.599998C183.563 0.599998 184.483 0.946665 185.229 1.64C185.976 2.33333 186.349 3.33333 186.349 4.64V12.72C186.349 13.8933 186.709 14.7867 187.429 15.4C188.176 15.9867 189.109 16.28 190.229 16.28V20.8C189.109 20.8 188.176 21.1067 187.429 21.72C186.709 22.3067 186.349 23.1867 186.349 24.36V32.48C186.349 33.7867 185.976 34.7867 185.229 35.48C184.483 36.1733 183.563 36.52 182.469 36.52H178.109V32.36H180.869V23.72C180.869 23.08 180.976 22.48 181.189 21.92C181.429 21.3333 181.736 20.8133 182.109 20.36C182.483 19.9067 182.923 19.5333 183.429 19.24C183.936 18.92 184.469 18.7067 185.029 18.6V18.44C184.469 18.3333 183.936 18.1333 183.429 17.84C182.923 17.52 182.483 17.1333 182.109 16.68C181.736 16.2267 181.429 15.72 181.189 15.16C180.976 14.5733 180.869 13.96 180.869 13.32V4.76H178.109V0.599998H182.469Z" fill="white"/>
<path d="M107.705 3.08H118.225C120.065 3.08 121.745 3.37333 123.265 3.96C124.785 4.54666 126.078 5.42667 127.145 6.6C128.212 7.74667 129.038 9.2 129.625 10.96C130.212 12.6933 130.505 14.72 130.505 17.04C130.505 19.36 130.212 21.4 129.625 23.16C129.038 24.8933 128.212 26.3467 127.145 27.52C126.078 28.6667 124.785 29.5333 123.265 30.12C121.745 30.7067 120.065 31 118.225 31H107.705V3.08ZM118.225 25.6C120.038 25.6 121.465 25.0933 122.505 24.08C123.545 23.0667 124.065 21.44 124.065 19.2V14.88C124.065 12.64 123.545 11.0133 122.505 10C121.465 8.98667 120.038 8.48 118.225 8.48H113.785V25.6H118.225ZM144.036 31.48C142.436 31.48 141.009 31.2267 139.756 30.72C138.502 30.1867 137.436 29.4533 136.556 28.52C135.702 27.56 135.049 26.4 134.596 25.04C134.169 23.68 133.956 22.16 133.956 20.48C133.956 18.8267 134.169 17.3333 134.596 16C135.022 14.64 135.649 13.48 136.476 12.52C137.329 11.56 138.369 10.8267 139.596 10.32C140.822 9.78667 142.222 9.52 143.796 9.52C145.529 9.52 147.009 9.81333 148.236 10.4C149.489 10.9867 150.502 11.7733 151.276 12.76C152.076 13.7467 152.649 14.8933 152.996 16.2C153.369 17.48 153.556 18.8267 153.556 20.24V22H140.076V22.32C140.076 23.7067 140.449 24.8133 141.196 25.64C141.942 26.44 143.116 26.84 144.716 26.84C145.942 26.84 146.942 26.6 147.716 26.12C148.489 25.6133 149.209 25.0133 149.876 24.32L152.836 28C151.902 29.0933 150.676 29.9467 149.156 30.56C147.662 31.1733 145.956 31.48 144.036 31.48ZM143.916 13.88C142.716 13.88 141.769 14.28 141.076 15.08C140.409 15.8533 140.076 16.8933 140.076 18.2V18.52H147.436V18.16C147.436 16.88 147.142 15.8533 146.556 15.08C145.996 14.28 145.116 13.88 143.916 13.88ZM161.826 31L154.946 10H160.786L163.386 18.48L165.346 26.08H165.666L167.626 18.48L170.146 10H175.746L168.866 31H161.826Z" fill="url(#paint0_linear_154_666)"/>
<defs>
<linearGradient id="paint0_linear_154_666" x1="175" y1="16" x2="106.5" y2="16" gradientUnits="userSpaceOnUse">
<stop stop-color="#F29F05"/>
<stop offset="1" stop-color="#F2B90F"/>
</linearGradient>
</defs>
</svg>
