<svg width="16" height="18" viewBox="0 0 48 52" fill="F29F05" xmlns="http://www.w3.org/2000/svg">
<path d="M23.9999 37.1288C28.4166 37.1288 31.997 32.1462 31.997 25.9999C31.997 19.8536 28.4166 14.8711 23.9999 14.8711C19.5833 14.8711 16.0029 19.8536 16.0029 25.9999C16.0029 32.1462 19.5833 37.1288 23.9999 37.1288Z" fill="#F29F05"/>
<path d="M46.5337 18.819C43.4328 11.7911 36.3794 0 24 0C11.6206 0 4.56717 11.7911 1.46632 18.819C-0.488773 23.2197 -0.488773 28.7802 1.46632 33.181C4.56717 40.2089 11.6206 52 24 52C36.3794 52 43.4328 40.2089 46.5337 33.181C48.4888 28.7802 48.4888 23.2197 46.5337 18.819ZM24 42.6933C17.3751 42.6933 12.0044 35.2194 12.0044 25.9999C12.0044 16.7805 17.3751 9.30656 24 9.30656C30.6249 9.30656 35.9956 16.7805 35.9956 25.9999C35.9889 35.2156 30.6222 42.684 24 42.6933Z" fill="#F29F05"/>
</svg>
